:SAMPLES-PER-SECOND 30
:FULLY-SPECIFIED
:DEGREES
168
root  -7.6407 49.4638 40.9399 8.81718 -8.99347 0.547486
RightUpLeg  -44.4074 -8.0165 4.41674
RightLeg  118.382 19.5051 -6.94595
RightFoot  -5.23984 0.179065 -2.38851
RightToes  -5.82073e-011 -3.18055e-015 -2.98177e-016
Spine  11.4175 -1.87614 2.51972
Spine1  3.84437 -2.13775 3.82356
HEad  -19.8993 17.377 1.59969
LeftShoulder1  -3.88251e-019 9.70628e-020 -3.87848e-018
LeftArm  11.9947 62.5083 37.4681
LeftForeArm  -39.6486 -36.0612 6.47041
LeftHand  -0.217987 -5.83527 2.61044
RightShoulder  0.627329 2.17613 4.14259
RightArm  -4.74044 -50.9076 -32.2038
RightForeArm  -68.39 50.6814 -28.7674
RightHand  -1.30383 3.07277 -17.5364
LeftUpLeg  -52.2551 8.07111 -3.76814
LeftLeg  115.976 -20.0212 12.546
LeftFoot  19.5551 -3.09071 10.7209
LeftToes  5.79026e-011 9.70705e-012 -3.73859e-011
169
root  -7.55611 49.4825 41.1008 8.67865 -9.80327 0.772857
RightUpLeg  -46.7551 -5.96374 4.20148
RightLeg  107.111 21.4466 -15.7222
RightFoot  -6.29476 0.389932 -6.08889
RightToes  -5.82073e-011 -3.18055e-015 -2.98177e-016
Spine  12.8051 -1.6333 4.13741
Spine1  5.50865 -1.41305 1.34385
HEad  -22.2525 17.1924 1.44283
LeftShoulder1  -3.88251e-019 9.70628e-020 -3.87848e-018
LeftArm  5.22029 67.7856 31.0771
LeftForeArm  -40.026 -31.1185 5.00025
LeftHand  -0.170694 -2.99658 2.5909
RightShoulder  1.15292 3.38411 7.41092
RightArm  0.782669 -51.2408 -31.4627
RightForeArm  -54.1417 35.8363 -17.1288
RightHand  -0.674531 -0.905711 -16.9838
LeftUpLeg  -54.6807 7.01514 -4.68882
LeftLeg  108.368 -19.2225 14.9382
LeftFoot  17.5783 -2.97897 10.9986
LeftToes  5.79026e-011 9.70705e-012 -3.73859e-011
170
root  -7.45374 49.2522 41.3319 9.88813 -11.0775 0.830311
RightUpLeg  -47.7027 -4.41932 3.9693
RightLeg  90.1233 17.7735 -21.1542
RightFoot  -4.81879 0.488283 -6.51821
RightToes  -5.82073e-011 -3.18055e-015 -2.98177e-016
Spine  12.3667 -0.873734 6.41411
Spine1  6.03661 -0.123971 -1.38282
HEad  -22.532 16.0964 0.907578
LeftShoulder1  -3.88251e-019 9.70628e-020 -3.87848e-018
LeftArm  -1.08476 72.0129 23.7446
LeftForeArm  -42.0133 -29.3358 4.60241
LeftHand  -0.028113 -1.2185 0.646914
RightShoulder  1.67935 4.41684 10.3623
RightArm  3.92611 -52.3326 -29.2703
RightForeArm  -57.2912 24.2518 -11.2204
RightHand  -0.26891 -3.83846 -18.9462
LeftUpLeg  -54.849 6.89633 -5.03959
LeftLeg  95.522 -15.7614 14.3386
LeftFoot  15.4685 -2.2948 9.16176
LeftToes  5.79026e-011 9.70705e-012 -3.73859e-011
171
root  -7.36307 48.595 41.6217 11.0918 -12.1459 0.859214
RightUpLeg  -45.427 -3.41694 3.55716
RightLeg  72.7964 12.4317 -16.7329
RightFoot  0.959428 0.490141 -4.19639
RightToes  -5.82073e-011 -3.18055e-015 -2.98177e-016
Spine  12.3647 -0.288338 8.95362
Spine1  4.55683 1.01942 -4.4643
HEad  -21.5712 14.7335 0.387493
LeftShoulder1  -3.88251e-019 9.70628e-020 -3.87848e-018
LeftArm  -0.821774 74.5756 19.4294
LeftForeArm  -43.5767 -28.2446 4.78508
LeftHand  0.0470237 -1.38361 -0.743381
RightShoulder  2.27452 5.32618 13.5936
RightArm  5.81401 -55.1548 -26.4709
RightForeArm  -70.6346 17.97 -10.8735
RightHand  0.0443541 -5.7443 -23.7192
LeftUpLeg  -52.1758 7.4637 -5.4229
LeftLeg  80.3738 -12.5098 10.4163
LeftFoot  15.2398 -1.43083 5.85307
LeftToes  5.79026e-011 9.70705e-012 -3.73859e-011
172
root  -7.30846 47.6089 41.9849 11.4928 -12.6315 1.29232
RightUpLeg  -40.8447 -2.3345 2.62491
RightLeg  54.7068 12.0016 -7.17664
RightFoot  10.2197 0.0664211 -0.587105
RightToes  -5.82073e-011 -3.18055e-015 -2.98177e-016
Spine  12.135 -0.132646 10.5707
Spine1  3.87291 1.47055 -6.56947
HEad  -21.2396 13.5615 -0.297831
LeftShoulder1  -3.88251e-019 9.70628e-020 -3.87848e-018
LeftArm  0.00365344 76.5384 16.4974
LeftForeArm  -43.267 -28.2215 4.77962
LeftHand  0.00233107 -2.32977 0.102263
RightShoulder  3.05867 6.31167 17.649
RightArm  2.53157 -58.0946 -23.9197
RightForeArm  -73.9165 17.5793 -11.6466
RightHand  0.0598111 -5.70784 -27.4577
LeftUpLeg  -47.3717 7.99513 -6.34889
LeftLeg  63.7979 -11.3105 5.92589
LeftFoot  17.3927 -0.384749 1.63023
LeftToes  5.79026e-011 9.70705e-012 -3.73859e-011
173
root  -7.32325 46.0812 42.4347 11.1623 -12.4127 2.33359
RightUpLeg  -35.2013 -1.13965 1.12355
RightLeg  36.8504 15.4489 -1.0195
RightFoot  18.0831 -0.553575 1.78005
RightToes  -5.82073e-011 -3.18055e-015 -2.98177e-016
Spine  10.388 0.0714685 10.2394
Spine1  5.10469 1.45917 -6.40254
HEad  -20.928 12.1906 -1.78274
LeftShoulder1  -3.88251e-019 9.70628e-020 -3.87848e-018
LeftArm  -5.01327 78.7555 11.4319
LeftForeArm  -42.9503 -29.5553 4.60517
LeftHand  -0.10886 -2.40098 1.89018
RightShoulder  3.71646 7.10431 20.6937
RightArm  -0.254721 -60.3755 -23.4924
RightForeArm  -64.1913 20.114 -10.7934
RightHand  0.0507703 -5.6955 -26.8942
LeftUpLeg  -41.3188 8.26867 -7.59312
LeftLeg  47.021 -10.9108 3.85405
LeftFoot  20.618 0.509778 -1.5183
LeftToes  5.79026e-011 9.70705e-012 -3.73859e-011
174
root  -7.40548 43.7946 42.957 10.3077 -11.7638 3.1361
RightUpLeg  -29.8058 -0.292737 0.14686
RightLeg  24.5492 17.0886 -0.117043
RightFoot  17.9542 -0.466021 1.35703
RightToes  -5.82073e-011 -3.18055e-015 -2.98177e-016
Spine  8.41574 0.460333 9.10083
Spine1  5.68942 1.41244 -4.85578
HEad  -19.3958 10.9958 -2.68943
LeftShoulder1  -3.88251e-019 9.70628e-020 -3.87848e-018
LeftArm  -9.38609 80.7939 8.51016
LeftForeArm  -43.9628 -31.907 5.03329
LeftHand  -0.153305 -2.14598 2.65799
RightShoulder  3.94133 7.38598 21.6205
RightArm  5.92078 -62.2855 -26.4196
RightForeArm  -55.9433 21.5033 -10.259
RightHand  -0.0233109 -5.3635 -22.7703
LeftUpLeg  -34.6467 8.12827 -7.81514
LeftLeg  33.8133 -9.3131 3.96285
LeftFoot  19.8559 0.628464 -1.90033
LeftToes  5.79026e-011 9.70705e-012 -3.73859e-011
175
root  -7.47054 41.0434 43.3456 9.33184 -11.6871 2.86014
RightUpLeg  -27.6692 0.573841 0.51869
RightLeg  24.1347 15.6577 -0.938887
RightFoot  6.64931 0.033864 -0.452621
RightToes  -5.82073e-011 -3.18055e-015 -2.98177e-016
Spine  8.65485 0.662043 8.90256
Spine1  3.66309 1.44917 -3.77602
HEad  -18.1867 10.7476 -2.37119
LeftShoulder1  -3.88251e-019 9.70628e-020 -3.87848e-018
LeftArm  -3.26152 81.8852 15.1595
LeftForeArm  -43.8331 -35.0935 5.90798
LeftHand  -0.201902 -2.56628 3.26062
RightShoulder  4.02806 7.38514 22.1952
RightArm  11.6151 -63.313 -28.7252
RightForeArm  -52.5987 22.0315 -10.1993
RightHand  -0.135865 -4.70579 -19.5417
LeftUpLeg  -29.61 6.55167 -6.16178
LeftLeg  29.0536 -6.24813 5.45092
LeftFoot  9.46969 0.330142 -1.59894
LeftToes  5.79026e-011 9.70705e-012 -3.73859e-011
176
root  -7.48756 38.2882 43.3866 8.5412 -12.5817 2.29142
RightUpLeg  -31.025 1.65153 1.41545
RightLeg  35.101 13.8704 -2.44141
RightFoot  -10.1183 0.0847859 -1.68121
RightToes  -5.82073e-011 -3.18055e-015 -2.98177e-016
Spine  11.5886 0.313307 8.73402
Spine1  0.63386 1.20282 -3.31837
HEad  -21.0114 11.5932 -2.28021
LeftShoulder1  -3.88251e-019 9.70628e-020 -3.87848e-018
LeftArm  0.300058 82.0712 16.8345
LeftForeArm  -42.3808 -37.2835 6.60427
LeftHand  -0.413369 -3.27858 5.95675
RightShoulder  4.67215 7.88967 25.2374
RightArm  6.75058 -62.0981 -23.2753
RightForeArm  -50.8129 22.4897 -10.2723
RightHand  -0.154101 -4.6424 -20.338
LeftUpLeg  -29.5435 3.67511 -4.36607
LeftLeg  34.9133 -3.32908 8.80154
LeftFoot  -7.99102 0.0939719 -2.98727
LeftToes  5.79026e-011 9.70705e-012 -3.73859e-011
177
root  -7.51323 36.0093 43.1554 7.59324 -13.2782 2.34629
RightUpLeg  -37.2763 2.19063 1.79388
RightLeg  49.2498 13.1869 -4.24268
RightFoot  -21.6589 -0.0899023 -2.20295
RightToes  -5.82073e-011 -3.18055e-015 -2.98177e-016
Spine  15.6767 -0.287359 7.27811
Spine1  -0.976383 0.501903 -1.96631
HEad  -27.946 12.0269 -3.743
LeftShoulder1  -3.88251e-019 9.70628e-020 -3.87848e-018
LeftArm  -23.8312 81.1733 -11.5868
LeftForeArm  -41.2397 -35.3658 5.98102
LeftHand  -0.683122 -3.0433 10.141
RightShoulder  5.97108 9.08802 30.3926
RightArm  -3.78343 -57.8792 -11.6497
RightForeArm  -48.2681 22.408 -10.3588
RightHand  -0.282028 -4.10768 -23.2627
LeftUpLeg  -33.9163 1.86401 -3.97704
LeftLeg  46.6733 -3.43416 12.671
LeftFoot  -21.4498 -0.389302 -4.73052
LeftToes  5.79026e-011 9.70705e-012 -3.73859e-011
178
root  -7.574 34.7972 42.9371 6.24886 -12.6291 2.19975
RightUpLeg  -40.8084 0.954899 2.54541
RightLeg  57.827 13.5421 -4.95367
RightFoot  -24.7666 -0.206237 -2.87273
RightToes  -5.82073e-011 -3.18055e-015 -2.98177e-016
Spine  18.7654 -0.64132 6.59024
Spine1  -1.05751 -0.204058 0.478797
HEad  -33.5352 10.5982 -5.65494
LeftShoulder1  -3.88251e-019 9.70628e-020 -3.87848e-018
LeftArm  -46.7277 74.6116 -44.0609
LeftForeArm  -44.0125 -28.6513 5.01629
LeftHand  -0.696863 -1.81186 11.9879
RightShoulder  7.17404 10.1308 34.6288
RightArm  -9.42039 -52.1014 -0.257247
RightForeArm  -45.5974 20.634 -10.3326
RightHand  -0.604898 -2.63653 -24.4026
LeftUpLeg  -37.4912 1.06123 -3.58451
LeftLeg  55.0626 -4.95718 14.6484
LeftFoot  -25.0327 -0.636486 -5.47407
LeftToes  5.79026e-011 9.70705e-012 -3.73859e-011
179
root  -7.68137 34.7379 42.811 5.14183 -11.2996 1.52501
RightUpLeg  -39.7824 -1.21395 3.67412
RightLeg  58.4516 14.0592 -4.15037
RightFoot  -23.8841 -0.248851 -3.50504
RightToes  -5.82073e-011 -3.18055e-015 -2.98177e-016
Spine  19.3975 -0.806814 7.30474
Spine1  -0.911069 -0.547972 2.21938
HEad  -33.4114 8.66041 -6.51066
LeftShoulder1  -3.88251e-019 9.70628e-020 -3.87848e-018
LeftArm  -42.7719 65.0661 -58.1534
LeftForeArm  -51.2987 -21.5543 6.17356
LeftHand  -0.641315 -2.20123 10.5907
RightShoulder  7.71955 10.5499 36.458
RightArm  -8.78948 -47.2919 9.10551
RightForeArm  -41.6229 18.3891 -10.1202
RightHand  -0.962915 -0.689428 -23.0455
LeftUpLeg  -37.4589 0.680945 -2.49295
LeftLeg  56.2196 -5.5571 14.3409
LeftFoot  -23.259 -0.565382 -5.64348
LeftToes  5.79026e-011 9.70705e-012 -3.73859e-011
